<?xml version="1.0" encoding="utf-8"?>
<!-- Generator: Adobe Illustrator 16.0.0, SVG Export Plug-In . SVG Version: 6.00 Build 0)  -->
<!DOCTYPE svg PUBLIC "-//W3C//DTD SVG 1.1//EN" "http://www.w3.org/Graphics/SVG/1.1/DTD/svg11.dtd">
<svg version="1.1" id="Calque_1" xmlns="http://www.w3.org/2000/svg" xmlns:xlink="http://www.w3.org/1999/xlink" x="0px" y="0px"
	 width="200px" height="200px" viewBox="0 0 200 200" enable-background="new 0 0 200 200" xml:space="preserve">
<circle fill="none" stroke="#FF725E" stroke-width="3" stroke-miterlimit="10" cx="100" cy="100" r="90"/>
<circle fill="none" cx="100" cy="100" r="73.077"/>
<text transform="matrix(0.9738 0.2276 -0.2276 0.9738 111.3809 27.5967)"><tspan x="0" y="0" fill="#FF725E" font-family="'Prototypo-Venus'" font-size="12">M</tspan><tspan x="10.854" y="0.021" fill="#FF725E" font-family="'Prototypo-Venus'" font-size="12" rotate="8.278">O</tspan><tspan x="20.933" y="1.566" fill="#FF725E" font-family="'Prototypo-Venus'" font-size="12" rotate="15.314">V</tspan><tspan x="28.352" y="3.596" fill="#FF725E" font-family="'Prototypo-Venus'" font-size="12" rotate="21.36">E</tspan><tspan x="35.586" y="6.524" fill="#FF725E" font-family="'Prototypo-Venus'" font-size="12" rotate="25.606"> </tspan><tspan x="38.401" y="7.795" fill="#FF725E" font-family="'Prototypo-Venus'" font-size="12" rotate="29.625">Y</tspan><tspan x="44.657" y="11.249" fill="#FF725E" font-family="'Prototypo-Venus'" font-size="12" rotate="36.372">O</tspan><tspan x="52.819" y="17.312" fill="#FF725E" font-family="'Prototypo-Venus'" font-size="12" rotate="43.792">U</tspan><tspan x="59.204" y="23.453" fill="#FF725E" font-family="'Prototypo-Venus'" font-size="12" rotate="50.529">R</tspan><tspan x="64.471" y="30.019" fill="#FF725E" font-family="'Prototypo-Venus'" font-size="12" rotate="55.061"> </tspan><tspan x="66.323" y="32.455" fill="#FF725E" font-family="'Prototypo-Venus'" font-size="12" rotate="59.833">C</tspan><tspan x="70.834" y="40.227" fill="#FF725E" font-family="'Prototypo-Venus'" font-size="12" rotate="66.874">U</tspan><tspan x="74.298" y="48.373" fill="#FF725E" font-family="'Prototypo-Venus'" font-size="12" rotate="73.579">R</tspan><tspan x="76.651" y="56.39" fill="#FF725E" font-family="'Prototypo-Venus'" font-size="12" rotate="79.906">S</tspan><tspan x="78.125" y="64.282" fill="#FF725E" font-family="'Prototypo-Venus'" font-size="12" rotate="87.018">O</tspan><tspan x="78.599" y="74.435" fill="#FF725E" font-family="'Prototypo-Venus'" font-size="12" rotate="94.3">R</tspan><tspan x="77.86" y="82.804" fill="#FF725E" font-family="'Prototypo-Venus'" font-size="12" rotate="98.827"> </tspan><tspan x="77.554" y="85.837" fill="#FF725E" font-family="'Prototypo-Venus'" font-size="12" rotate="104.053">O</tspan><tspan x="75.002" y="95.711" fill="#FF725E" font-family="'Prototypo-Venus'" font-size="12" rotate="111.059">V</tspan><tspan x="72.24" y="102.886" fill="#FF725E" font-family="'Prototypo-Venus'" font-size="12" rotate="117.081">E</tspan><tspan x="68.732" y="109.783" fill="#FF725E" font-family="'Prototypo-Venus'" font-size="12" rotate="123.34">R</tspan><tspan x="64.012" y="116.761" fill="#FF725E" font-family="'Prototypo-Venus'" font-size="12" rotate="127.826"> </tspan><tspan x="62.187" y="119.227" fill="#FF725E" font-family="'Prototypo-Venus'" font-size="12" rotate="131.836">T</tspan><tspan x="57.457" y="124.604" fill="#FF725E" font-family="'Prototypo-Venus'" font-size="12" rotate="138.332">H</tspan><tspan x="50.414" y="130.812" fill="#FF725E" font-family="'Prototypo-Venus'" font-size="12" rotate="145.061">E</tspan><tspan x="43.948" y="135.214" fill="#FF725E" font-family="'Prototypo-Venus'" font-size="12" rotate="149.369"> </tspan><tspan x="41.372" y="136.889" fill="#FF725E" font-family="'Prototypo-Venus'" font-size="12" rotate="154.227">D</tspan><tspan x="33.156" y="140.897" fill="#FF725E" font-family="'Prototypo-Venus'" font-size="12" rotate="161.792">O</tspan><tspan x="23.478" y="144.038" fill="#FF725E" font-family="'Prototypo-Venus'" font-size="12" rotate="169.179">C</tspan><tspan x="14.658" y="145.724" fill="#FF725E" font-family="'Prototypo-Venus'" font-size="12" rotate="176.142">U</tspan><tspan x="5.847" y="146.391" fill="#FF725E" font-family="'Prototypo-Venus'" font-size="12" rotate="-176.099">M</tspan><tspan x="-4.985" y="145.553" fill="#FF725E" font-family="'Prototypo-Venus'" font-size="12" rotate="-168.782">E</tspan><tspan x="-12.601" y="144.078" fill="#FF725E" font-family="'Prototypo-Venus'" font-size="12" rotate="-162.196">N</tspan><tspan x="-21.145" y="141.28" fill="#FF725E" font-family="'Prototypo-Venus'" font-size="12" rotate="-155.893">T</tspan><tspan x="-27.71" y="138.26" fill="#FF725E" font-family="'Prototypo-Venus'" font-size="12" rotate="-151.871"> </tspan><tspan x="-30.463" y="136.868" fill="#FF725E" font-family="'Prototypo-Venus'" font-size="12" rotate="-147.857">T</tspan><tspan x="-36.562" y="133.14" fill="#FF725E" font-family="'Prototypo-Venus'" font-size="12" rotate="-141.104">O</tspan><tspan x="-44.432" y="126.58" fill="#FF725E" font-family="'Prototypo-Venus'" font-size="12" rotate="-135.906"> </tspan><tspan x="-46.741" y="124.604" fill="#FF725E" font-family="'Prototypo-Venus'" font-size="12" rotate="-130.429">M</tspan><tspan x="-53.768" y="116.323" fill="#FF725E" font-family="'Prototypo-Venus'" font-size="12" rotate="-122.16">O</tspan><tspan x="-59.154" y="107.697" fill="#FF725E" font-family="'Prototypo-Venus'" font-size="12" rotate="-114.541">D</tspan><tspan x="-62.866" y="99.268" fill="#FF725E" font-family="'Prototypo-Venus'" font-size="12" rotate="-109.474">I</tspan><tspan x="-64.173" y="95.771" fill="#FF725E" font-family="'Prototypo-Venus'" font-size="12" rotate="-105.151">F</tspan><tspan x="-66.09" y="88.671" fill="#FF725E" font-family="'Prototypo-Venus'" font-size="12" rotate="-99.551">Y</tspan><tspan x="-67.213" y="81.534" fill="#FF725E" font-family="'Prototypo-Venus'" font-size="12" rotate="-95.527"> </tspan><tspan x="-67.604" y="78.468" fill="#FF725E" font-family="'Prototypo-Venus'" font-size="12" rotate="-91.12">P</tspan><tspan x="-67.781" y="70.442" fill="#FF725E" font-family="'Prototypo-Venus'" font-size="12" rotate="-84.526">A</tspan><tspan x="-66.943" y="61.798" fill="#FF725E" font-family="'Prototypo-Venus'" font-size="12" rotate="-77.821">R</tspan><tspan x="-65.194" y="53.647" fill="#FF725E" font-family="'Prototypo-Venus'" font-size="12" rotate="-71.138">A</tspan><tspan x="-62.456" y="45.402" fill="#FF725E" font-family="'Prototypo-Venus'" font-size="12" rotate="-63.495">M</tspan><tspan x="-57.51" y="35.705" fill="#FF725E" font-family="'Prototypo-Venus'" font-size="12" rotate="-56.255">E</tspan><tspan x="-53.184" y="29.259" fill="#FF725E" font-family="'Prototypo-Venus'" font-size="12" rotate="-50.439">T</tspan><tspan x="-48.638" y="23.733" fill="#FF725E" font-family="'Prototypo-Venus'" font-size="12" rotate="-44.611">E</tspan><tspan x="-43.133" y="18.279" fill="#FF725E" font-family="'Prototypo-Venus'" font-size="12" rotate="-38.293">R</tspan><tspan x="-36.576" y="13.113" fill="#FF725E" font-family="'Prototypo-Venus'" font-size="12" rotate="-31.828">S</tspan><tspan x="-29.642" y="8.929" fill="#FF725E" font-family="'Prototypo-Venus'" font-size="12" rotate="-27.539">.</tspan></text>
<g>
	<g>
		<g>
			<g>
				<path fill="#FF725E" d="M111.624,92.36c0.008-1.431-0.532-3.126-1.62-5.096c-0.912-1.662-2-2.934-3.233-3.811
					c-1.241-0.872-2.571-1.466-3.974-1.774c-1.413-0.308-2.857-0.374-4.337-0.187c-1.479,0.189-2.914,0.511-4.308,0.974
					c-1.076,0.352-2.069,0.717-3,1.111c-0.921,0.391-1.656,0.737-2.184,1.032l9.465,17.177c0.248-0.016,0.592-0.077,1.052-0.158
					c0.456-0.097,0.935-0.205,1.426-0.342c0.498-0.133,0.978-0.275,1.435-0.423c0.448-0.147,0.79-0.259,1.007-0.331
					c1.446-0.474,2.811-1.074,4.092-1.794c1.278-0.718,2.301-1.602,3.055-2.653C111.243,95.033,111.62,93.793,111.624,92.36
					 M114.598,75.348c2.694,1.825,5.055,4.583,7.079,8.262c1.833,3.329,2.769,6.345,2.797,9.047
					c0.032,2.697-0.568,5.115-1.797,7.248c-1.236,2.135-2.97,3.953-5.216,5.469c-2.238,1.509-4.753,2.719-7.538,3.633
					c-0.272,0.087-0.704,0.229-1.29,0.423c-0.596,0.198-1.22,0.385-1.877,0.568c-0.649,0.191-1.306,0.359-1.949,0.511
					c-0.645,0.15-1.113,0.246-1.41,0.289l10.048,18.233l-11.021,3.617L73.526,80.209c2.028-1.145,4.331-2.273,6.923-3.395
					c2.581-1.116,5.212-2.114,7.891-2.994c2.79-0.917,5.712-1.621,8.766-2.116c3.054-0.495,6.059-0.471,9.024,0.08
					C109.092,72.335,111.918,73.518,114.598,75.348"/>
			</g>
		</g>
	</g>
</g>
</svg>
